<?xml version="1.0" encoding="UTF-8" standalone="no"?>
<!-- Created with Inkscape (http://www.inkscape.org/) -->

<svg
   xmlns:dc="http://purl.org/dc/elements/1.1/"
   xmlns:cc="http://creativecommons.org/ns#"
   xmlns:rdf="http://www.w3.org/1999/02/22-rdf-syntax-ns#"
   xmlns:svg="http://www.w3.org/2000/svg"
   xmlns="http://www.w3.org/2000/svg"
   xmlns:sodipodi="http://sodipodi.sourceforge.net/DTD/sodipodi-0.dtd"
   xmlns:inkscape="http://www.inkscape.org/namespaces/inkscape"
   version="1.1"
   id="svg2"
   width="470.9375"
   height="869.09027"
   viewBox="0 0 470.9375 869.09028"
   sodipodi:docname="ErrorUSB.svg"
   inkscape:export-filename="C:\Users\Kr\Desktop\ErroUSB.png"
   inkscape:export-xdpi="28"
   inkscape:export-ydpi="28"
   inkscape:version="0.92.1 r15371">
  <metadata
     id="metadata8">
    <rdf:RDF>
      <cc:Work
         rdf:about="">
        <dc:format>image/svg+xml</dc:format>
        <dc:type
           rdf:resource="http://purl.org/dc/dcmitype/StillImage" />
        <dc:title></dc:title>
      </cc:Work>
    </rdf:RDF>
  </metadata>
  <defs
     id="defs6" />
  <sodipodi:namedview
     pagecolor="#ffffff"
     bordercolor="#666666"
     borderopacity="1"
     objecttolerance="10"
     gridtolerance="10"
     guidetolerance="10"
     inkscape:pageopacity="0"
     inkscape:pageshadow="2"
     inkscape:window-width="1366"
     inkscape:window-height="705"
     id="namedview4"
     showgrid="true"
     fit-margin-top="0"
     fit-margin-left="0"
     fit-margin-right="0"
     fit-margin-bottom="0"
     inkscape:zoom="0.26743141"
     inkscape:cx="819.58836"
     inkscape:cy="107.32259"
     inkscape:window-x="-4"
     inkscape:window-y="1020"
     inkscape:window-maximized="1"
     inkscape:current-layer="layer1">
    <inkscape:grid
       type="xygrid"
       id="grid4501"
       originx="-132.33084"
       originy="-23.384562" />
  </sodipodi:namedview>
  <g
     inkscape:groupmode="layer"
     id="layer2"
     inkscape:label="baixo"
     transform="translate(-177.21875,77.674832)" />
  <g
     inkscape:groupmode="layer"
     id="layer1"
     inkscape:label="cima"
     transform="translate(-177.21875,77.674832)">
    <text
       xml:space="preserve"
       style="font-style:normal;font-variant:normal;font-weight:normal;font-stretch:normal;font-size:85.33333588px;line-height:1.25;font-family:Roboto;-inkscape-font-specification:Roboto;letter-spacing:0px;word-spacing:0px;fill:#cccccc;fill-opacity:1;stroke:#800000;stroke-width:2;stroke-miterlimit:4;stroke-dasharray:none"
       x="414.9375"
       y="789.47797"
       id="text4505"><tspan
         sodipodi:role="line"
         id="tspan4503"
         x="414.9375"
         y="789.47797"
         style="font-style:normal;font-variant:normal;font-weight:bold;font-stretch:normal;font-size:96px;font-family:Roboto;-inkscape-font-specification:'Roboto Bold';text-align:center;text-anchor:middle;fill:#cccccc;stroke:#800000;stroke-width:2;stroke-miterlimit:4;stroke-dasharray:none">Insira USB</tspan></text>
    <g
       id="g4536"
       transform="matrix(1.4762925,0,0,1.4762925,-253.87393,-147.20825)">
      <path
         id="path2"
         d="m 522.13091,201.58302 h -141.242 V 55.928028 c 0,-4.875 3.953,-8.828 8.828,-8.828 h 123.586 c 4.875,0 8.828,3.953 8.828,8.828 z"
         style="fill:#e4eaf6"
         inkscape:connector-curvature="0" />
      <path
         id="path4"
         d="m 451.50991,47.100028 h -61.793 c -4.875,0 -8.828,3.953 -8.828,8.828 V 201.58302 h 70.621 z"
         style="fill:#c7cfe2"
         inkscape:connector-curvature="0" />
      <g
         id="g10"
         transform="translate(195.50991,47.100028)">
        <path
           id="path6"
           d="m 225.103,114.759 h -17.655 c -2.438,0 -4.414,-1.976 -4.414,-4.414 v -8.828 c 0,-2.438 1.976,-4.414 4.414,-4.414 h 17.655 c 2.438,0 4.414,1.976 4.414,4.414 v 8.828 c 0,2.437 -1.976,4.414 -4.414,4.414 z"
           style="fill:#82889d"
           inkscape:connector-curvature="0" />
        <path
           id="path8"
           d="m 304.552,114.759 h -17.655 c -2.438,0 -4.414,-1.976 -4.414,-4.414 v -8.828 c 0,-2.438 1.976,-4.414 4.414,-4.414 h 17.655 c 2.438,0 4.414,1.976 4.414,4.414 v 8.828 c 0,2.437 -1.977,4.414 -4.414,4.414 z"
           style="fill:#82889d"
           inkscape:connector-curvature="0" />
      </g>
      <path
         id="path12"
         d="m 451.50991,559.10003 v 0 c -48.754,0 -88.276,-39.522 -88.276,-88.276 V 197.16902 c 0,-4.875 3.953,-8.828 8.828,-8.828 h 158.897 c 4.875,0 8.828,3.953 8.828,8.828 v 273.65501 c -0.001,48.754 -39.523,88.276 -88.277,88.276 z"
         style="fill:#ff7d7d"
         inkscape:connector-curvature="0" />
      <path
         id="path14"
         d="m 513.30291,214.82402 v 256.00001 c 0,34.072 -27.72,61.793 -61.793,61.793 -34.072,0 -61.793,-27.721 -61.793,-61.793 V 214.82402 h 123.586"
         style="fill:#eb5555"
         inkscape:connector-curvature="0" />
      <path
         id="path16"
         d="m 500.06191,320.43802 h -26.483 v 26.48301 h 6.621 v 5.931 c 0,2.905 -1.176,5.75 -3.233,7.801 l -18.836,18.837 v -72.29401 h 11.034 l -8.828,-15.289 -8.827,-15.29 -8.828,15.289 -8.828,15.289 h 11.034 v 107.60501 l -18.836,-18.836 c -2.056,-2.051 -3.233,-4.897 -3.233,-7.801 v -25.423 c 3.942,-2.294 6.621,-6.516 6.621,-11.405 0,-7.313 -5.929,-13.24101 -13.241,-13.24101 -7.312,0 -13.241,5.92901 -13.241,13.24101 0,4.889 2.679,9.111 6.621,11.405 v 25.422 c 0,6.483 2.526,12.577 7.112,17.164 l 28.199,28.198 v 7.395 c -6.465,2.621 -11.034,8.94 -11.034,16.345 0,9.75 7.905,17.655 17.655,17.655 9.75,0 17.655,-7.905 17.655,-17.655 0,-7.405 -4.569,-13.725 -11.034,-16.345 v -42.706 l 28.199,-28.199 c 4.586,-4.586 7.112,-10.681 7.112,-17.164 v -5.931 h 6.621 v -26.48101 z"
         style="fill:#464655"
         inkscape:connector-curvature="0" />
    </g>
  </g>
</svg>
