<?xml version="1.0" encoding="UTF-8" standalone="no"?>
<!-- Created with Inkscape (http://www.inkscape.org/) -->

<svg
   xmlns:dc="http://purl.org/dc/elements/1.1/"
   xmlns:cc="http://creativecommons.org/ns#"
   xmlns:rdf="http://www.w3.org/1999/02/22-rdf-syntax-ns#"
   xmlns:svg="http://www.w3.org/2000/svg"
   xmlns="http://www.w3.org/2000/svg"
   xmlns:sodipodi="http://sodipodi.sourceforge.net/DTD/sodipodi-0.dtd"
   xmlns:inkscape="http://www.inkscape.org/namespaces/inkscape"
   width="139.4157mm"
   height="57.753651mm"
   viewBox="0 0 139.4157 57.753652"
   version="1.1"
   id="svg8"
   inkscape:version="0.92.1 r15371"
   sodipodi:docname="InputNewConsole.svg">
  <defs
     id="defs2">
    <pattern
       y="0"
       x="0"
       height="6"
       width="6"
       patternUnits="userSpaceOnUse"
       id="EMFhbasepattern" />
  </defs>
  <sodipodi:namedview
     id="base"
     pagecolor="#ffffff"
     bordercolor="#666666"
     borderopacity="1.0"
     inkscape:pageopacity="0.0"
     inkscape:pageshadow="2"
     inkscape:zoom="0.7071068"
     inkscape:cx="-200.57744"
     inkscape:cy="142.84285"
     inkscape:document-units="mm"
     inkscape:current-layer="layer1"
     showgrid="true"
     showguides="true"
     inkscape:window-width="1366"
     inkscape:window-height="705"
     inkscape:window-x="-4"
     inkscape:window-y="1020"
     inkscape:window-maximized="1"
     fit-margin-top="0"
     fit-margin-left="0"
     fit-margin-right="0"
     fit-margin-bottom="0">
    <inkscape:grid
       type="xygrid"
       id="grid10"
       originx="18.302574"
       originy="-173.41666" />
  </sodipodi:namedview>
  <metadata
     id="metadata5">
    <rdf:RDF>
      <cc:Work
         rdf:about="">
        <dc:format>image/svg+xml</dc:format>
        <dc:type
           rdf:resource="http://purl.org/dc/dcmitype/StillImage" />
        <dc:title />
      </cc:Work>
    </rdf:RDF>
  </metadata>
  <g
     inkscape:groupmode="layer"
     id="layer2"
     inkscape:label="Camada 0"
     transform="translate(18.302575,-65.829702)" />
  <g
     inkscape:label="Camada 1"
     inkscape:groupmode="layer"
     id="layer1"
     transform="translate(18.302575,-65.829702)">
    <text
       xml:space="preserve"
       style="font-style:normal;font-variant:normal;font-weight:normal;font-stretch:normal;font-size:10.58333302px;line-height:1.25;font-family:Cabin;-inkscape-font-specification:Cabin;letter-spacing:0px;word-spacing:0px;fill:#000000;fill-opacity:1;stroke:none;stroke-width:0.26458332"
       x="43.384087"
       y="77.927498"
       id="text4827"><tspan
         sodipodi:role="line"
         id="tspan4825"
         x="43.384087"
         y="77.927498"
         style="font-style:normal;font-variant:normal;font-weight:normal;font-stretch:normal;font-size:2.82222223px;font-family:'GFS Complutum';-inkscape-font-specification:'GFS Complutum';stroke-width:0.26458332">Console</tspan></text>
    <path
       style="fill:none;stroke:#000000;stroke-width:0.26458332px;stroke-linecap:butt;stroke-linejoin:miter;stroke-opacity:1"
       d="M 34.395832,78.718753 H 63.499999 V 98.562502 H 34.395832 Z"
       id="path4564"
       inkscape:connector-curvature="0" />
    <path
       style="fill:none;stroke:#000000;stroke-width:0.26458332px;stroke-linecap:butt;stroke-linejoin:miter;stroke-opacity:1"
       d="M 91.876565,78.718753 H 120.98083 V 98.562502 H 91.876565 Z"
       id="path4564-5"
       inkscape:connector-curvature="0" />
    <g
       id="g4650"
       transform="translate(10.142361,-2.050519)">
      <path
         inkscape:connector-curvature="0"
         id="path351"
         d="m 108.03819,92.69757 -0.57326,0.573265 H 84.534373 v -4.586113 l 0.573265,-0.573264 h 22.930552 z"
         style="fill:#1e1e1e;fill-opacity:1;stroke:none;stroke-width:0.1146528px;stroke-linecap:butt;stroke-linejoin:miter;stroke-opacity:1" />
      <g
         transform="matrix(0.43333343,0,0,0.43333343,59.310757,60.87916)"
         id="g4498">
        <path
           style="fill:#2d2d2d;fill-opacity:1;stroke:none;stroke-width:0.26458332px;stroke-linecap:butt;stroke-linejoin:miter;stroke-opacity:1"
           d="m 59.531249,65.489584 v 7.9375 h 50.270831 v -7.9375 z"
           id="path4830"
           inkscape:connector-curvature="0" />
      </g>
      <text
         id="text4495"
         y="91.898064"
         x="85.844696"
         style="font-style:normal;font-variant:normal;font-weight:normal;font-stretch:normal;font-size:4.58611202px;line-height:1.25;font-family:'Advanced LED Board-7';-inkscape-font-specification:'Advanced LED Board-7';letter-spacing:0px;word-spacing:0px;fill:#ffff4d;fill-opacity:1;stroke:none;stroke-width:0.1146528"
         xml:space="preserve"><tspan
           style="font-size:2.14018559px;fill:#ffff4d;fill-opacity:1;stroke-width:0.1146528"
           y="91.898064"
           x="85.844696"
           id="tspan4493"
           sodipodi:role="line">Linha - Destino</tspan></text>
      <path
         sodipodi:nodetypes="ccccccccccccccccc"
         inkscape:connector-curvature="0"
         d="M 85.107638,89.257986 H 106.89167 V 92.69757 H 85.107638 Z m 22.357292,-0.573264 0.57326,-0.573264 m -23.503816,0.573264 0.573264,-0.573264 h 22.930552 v 4.586112 l -0.57326,0.573265 M 84.534374,88.684722 v 4.586113 h 22.930556 v -4.586113 z"
         style="fill:none;stroke:#000000;stroke-width:0.1146528px;stroke-linecap:butt;stroke-linejoin:miter;stroke-opacity:1"
         id="path22" />
    </g>
    <text
       xml:space="preserve"
       style="font-style:normal;font-variant:normal;font-weight:normal;font-stretch:normal;font-size:10.58333302px;line-height:1.25;font-family:Cabin;-inkscape-font-specification:Cabin;letter-spacing:0px;word-spacing:0px;fill:#000000;fill-opacity:1;stroke:none;stroke-width:0.26458332"
       x="95.159752"
       y="77.687225"
       id="text4827-1"><tspan
         sodipodi:role="line"
         id="tspan4825-6"
         x="95.159752"
         y="77.687225"
         style="font-style:normal;font-variant:normal;font-weight:normal;font-stretch:normal;font-size:2.82222223px;font-family:'GFS Complutum';-inkscape-font-specification:'GFS Complutum';stroke-width:0.26458332">Rede de Painéis</tspan></text>
    <path
       style="fill:#cccccc;stroke:#000000;stroke-width:0.33804539px;stroke-linecap:butt;stroke-linejoin:miter;stroke-opacity:1"
       d="M 30.504517,84.377726 9.4800905,84.275002 h -1.278008 v -7.14375 h -4.7625 v -3.439583 h 7.9375005 v 7.305604 h 19.127434 v -1.690228 l 3.380454,3.380453 -3.380454,3.380456 z"
       id="path4672"
       inkscape:connector-curvature="0"
       sodipodi:nodetypes="ccccccccccccc" />
    <text
       xml:space="preserve"
       style="font-style:normal;font-variant:normal;font-weight:normal;font-stretch:normal;font-size:50.79999924px;line-height:1.25;font-family:Roboto;-inkscape-font-specification:Roboto;letter-spacing:0px;word-spacing:0px;fill:#000000;fill-opacity:1;stroke:none;stroke-width:0.26458332"
       x="10.12928"
       y="87.666428"
       id="text4676"><tspan
         sodipodi:role="line"
         id="tspan4674"
         x="10.12928"
         y="87.666428"
         style="font-size:2.82222223px;stroke-width:0.26458332">Dados em XML</tspan></text>
    <path
       style="fill:#cccccc;stroke:#000000;stroke-width:0.33804539px;stroke-linecap:butt;stroke-linejoin:miter;stroke-opacity:1"
       d="M 88.10385,86.656253 H 63.764582 v -3.38045 H 88.10385 v -1.69023 l 3.380455,3.38045 -3.380455,3.38046 z"
       id="path4672-2"
       inkscape:connector-curvature="0"
       sodipodi:nodetypes="cccccccc" />
    <text
       xml:space="preserve"
       style="font-style:normal;font-variant:normal;font-weight:normal;font-stretch:normal;font-size:50.79999924px;line-height:1.25;font-family:Roboto;-inkscape-font-specification:Roboto;letter-spacing:0px;word-spacing:0px;fill:#000000;fill-opacity:1;stroke:none;stroke-width:0.26458332"
       x="71.438293"
       y="91.003288"
       id="text4676-6"><tspan
         sodipodi:role="line"
         id="tspan4674-3"
         x="71.438293"
         y="91.003288"
         style="font-size:2.82222223px;stroke-width:0.26458332">UART 485</tspan></text>
    <g
       id="g4611"
       transform="matrix(0.86861181,0,0,0.86861181,29.413198,11.071783)">
      <path
         d="M 34.395833,97.239583 V 81.364584 h -23.8125 V 97.239583 Z M 33.072917,82.6875 c 0,13.229167 0,13.229167 0,13.229167 0,0 -15.119048,0 -18.142857,0 -3.02381,0 -3.02381,0 -3.02381,0 V 82.6875 Z"
         style="fill:#808080;stroke:#000000;stroke-width:0.26022482;stroke-linecap:butt;stroke-linejoin:miter;stroke-miterlimit:4;stroke-dasharray:none;stroke-opacity:1"
         id="path4569"
         inkscape:connector-curvature="0" />
      <path
         inkscape:connector-curvature="0"
         id="path4586"
         d="m 18.520833,82.6875 h 14.552083 v 9.260417 z"
         style="fill:#003c80;fill-opacity:1;stroke:none;stroke-width:0.26458332px;stroke-linecap:butt;stroke-linejoin:miter;stroke-opacity:1" />
      <path
         inkscape:connector-curvature="0"
         id="path4588"
         d="M 18.520833,82.6875 H 11.90625 v 13.229167 h 21.166666 v -3.96875 z"
         style="fill:#000075;fill-opacity:1;stroke:none;stroke-width:0.26458332px;stroke-linecap:butt;stroke-linejoin:miter;stroke-opacity:1" />
    </g>
    <g
       id="g4563"
       transform="matrix(0.01899896,0.01899896,-0.01899896,0.01899896,-7.1985678,66.571785)">
      <path
         inkscape:connector-curvature="0"
         id="path2"
         d="M 115.015,502.646 90.66,486.889 C 63.939,469.596 41.19,446.847 23.897,420.126 L 11.229,400.546 C -6.135,373.71 -2.392,338.4 20.207,315.801 L 262.357,73.651 437.134,248.428 190.959,494.604 c -20.25,20.251 -51.897,23.605 -75.944,8.042"
         style="fill:#434c6d" />
      <polygon
         id="polygon4"
         points="412.165,223.462 287.325,98.622 388.454,0 512.04,123.586 "
         style="fill:#d9dbe8" />
      <g
         id="g10">
        <polygon
           id="polygon6"
           points="387.197,98.621 362.233,73.657 387.197,48.683 412.162,73.657 "
           style="fill:#b1b4c4" />
        <polygon
           id="polygon8"
           points="437.134,148.557 412.17,123.592 437.134,98.619 462.098,123.592 "
           style="fill:#b1b4c4" />
      </g>
      <path
         inkscape:connector-curvature="0"
         id="path12"
         d="m 312.293,323.334 -24.964,-24.964 -24.973,24.964 6.25,6.241 -0.009,0.009 -20.48,20.471 -51.633,-23.278 77.206,-77.206 v 15.263 c 0,4.873 3.955,8.828 8.828,8.828 4.882,0 8.828,-3.955 8.828,-8.828 V 229.7 c 0,-4.882 -3.946,-8.828 -8.828,-8.828 H 238.38 c -4.873,0 -8.828,3.946 -8.828,8.828 0,4.882 3.955,8.828 8.828,8.828 h 21.389 l -94.517,94.526 -23.411,-51.5 20.648,-20.639 c 1.457,-1.457 2.154,-3.31 2.383,-5.199 0.945,0.15 1.898,0.291 2.887,0.291 9.755,0 17.655,-7.91 17.655,-17.655 0,-9.755 -7.901,-17.655 -17.655,-17.655 -9.746,0 -17.655,7.901 -17.655,17.655 0,3.098 0.874,5.967 2.278,8.501 -0.839,0.415 -1.677,0.883 -2.375,1.58 l -24.973,24.964 c -2.604,2.604 -3.319,6.55 -1.801,9.896 l 28.69,63.091 -14.407,14.407 c -1.148,1.139 -1.766,2.542 -2.154,3.999 -3.549,-1.766 -7.503,-2.851 -11.741,-2.851 -14.618,0 -26.483,11.855 -26.483,26.483 0,14.618 11.864,26.483 26.483,26.483 14.627,0 26.483,-11.864 26.483,-26.483 0,-4.793 -1.368,-9.225 -3.593,-13.1 1.271,-0.424 2.472,-1.042 3.487,-2.048 l 18.97,-18.979 c 0.009,0 0.018,-0.009 0.018,-0.018 l 14.142,-14.142 63.294,28.522 c 1.156,0.521 2.401,0.777 3.628,0.777 2.286,0 4.546,-0.892 6.241,-2.586 l 24.788,-24.779 0.009,-0.009 6.241,6.241 z"
         style="fill:#7383bf" />
    </g>
    <path
       style="fill:none;stroke:#000000;stroke-width:0.19402777px;stroke-linecap:butt;stroke-linejoin:miter;stroke-opacity:1"
       d="M -18.011129,69.000137 H 3.3319279 V 83.55222 H -18.011129 Z"
       id="path4564-9"
       inkscape:connector-curvature="0" />
    <text
       xml:space="preserve"
       style="font-style:normal;font-variant:normal;font-weight:normal;font-stretch:normal;font-size:10.58333302px;line-height:1.25;font-family:Cabin;-inkscape-font-specification:Cabin;letter-spacing:0px;word-spacing:0px;fill:#000000;fill-opacity:1;stroke:none;stroke-width:0.26458332"
       x="-18.578182"
       y="67.918808"
       id="text4827-4"><tspan
         sodipodi:role="line"
         id="tspan4825-5"
         x="-18.578182"
         y="67.918808"
         style="font-style:normal;font-variant:normal;font-weight:normal;font-stretch:normal;font-size:2.82222223px;font-family:'GFS Complutum';-inkscape-font-specification:'GFS Complutum';stroke-width:0.26458332">Dispositivo USB</tspan></text>
    <path
       style="fill:none;stroke:#000000;stroke-width:0.19402777px;stroke-linecap:butt;stroke-linejoin:miter;stroke-opacity:1"
       d="M -18.015775,89.129539 H 3.3272823 V 103.68159 H -18.015775 Z"
       id="path4564-9-0"
       inkscape:connector-curvature="0" />
    <text
       xml:space="preserve"
       style="font-style:normal;font-variant:normal;font-weight:normal;font-stretch:normal;font-size:10.58333302px;line-height:1.25;font-family:Cabin;-inkscape-font-specification:Cabin;letter-spacing:0px;word-spacing:0px;fill:#000000;fill-opacity:1;stroke:none;stroke-width:0.26458332"
       x="-15.659329"
       y="88.048187"
       id="text4827-4-2"><tspan
         sodipodi:role="line"
         id="tspan4825-5-9"
         x="-15.659329"
         y="88.048187"
         style="font-style:normal;font-variant:normal;font-weight:normal;font-stretch:normal;font-size:2.82222223px;font-family:'GFS Complutum';-inkscape-font-specification:'GFS Complutum';stroke-width:0.26458332">SSH ou FTP</tspan></text>
    <g
       id="g4801"
       transform="matrix(0.78947365,0,0,0.78947365,-30.911243,-1.4568178)">
      <path
         inkscape:connector-curvature="0"
         style="fill:#7fabda;fill-opacity:1;fill-rule:nonzero;stroke:#7383bf;stroke-width:0.52916276px;stroke-linecap:round;stroke-linejoin:miter;stroke-miterlimit:10;stroke-dasharray:none;stroke-opacity:1"
         d="m 35.132576,121.71351 c -0.02117,-2.30715 -1.904986,-4.2333 -4.212136,-4.2333 -1.460489,0 -2.857479,0.78316 -3.619473,1.92615 -0.338664,-0.21167 -0.740828,-0.33866 -1.164158,-0.33866 -1.164158,0 -2.116651,0.93132 -2.116651,2.11665 0,0.0212 0,0.0635 0,0.10583 0,0.0423 0,0.10583 0,0.14816 -1.058325,0.508 -1.841486,1.71449 -1.841486,2.94215 0,1.73565 1.396989,3.15381 3.132643,3.15381 h 6.476952 c 0.04233,0 0.0635,-0.0212 0.105833,-0.0212 0.04233,0 0.0635,0.0212 0.105832,0.0212 h 2.603481 c 1.587488,0 2.920978,-1.33349 2.920978,-2.92098 0,-1.41816 -1.037159,-2.64581 -2.391815,-2.89981 z"
         id="path4762" />
      <path
         inkscape:connector-curvature="0"
         style="fill:#7fabda;fill-opacity:1;fill-rule:nonzero;stroke:none;stroke-width:0.26458332"
         d="m 35.132576,121.71351 c 0,0 -0.677329,-0.10583 -1.312324,0 z"
         id="path4764" />
      <path
         inkscape:connector-curvature="0"
         style="fill:none;stroke:#7383bf;stroke-width:0.52916276px;stroke-linecap:round;stroke-linejoin:miter;stroke-miterlimit:10;stroke-dasharray:none;stroke-opacity:1"
         d="m 35.132576,121.71351 c 0,0 -0.677329,-0.10583 -1.312324,0"
         id="path4766" />
      <path
         inkscape:connector-curvature="0"
         style="fill:#7fabda;fill-opacity:1;fill-rule:nonzero;stroke:none;stroke-width:0.26458332"
         d="m 24.020158,121.18435 c 0,-1.18533 0.952493,-2.11665 2.116651,-2.11665 1.164158,0 2.116651,0.93132 2.116651,2.11665 z"
         id="path4768" />
      <path
         inkscape:connector-curvature="0"
         style="fill:none;stroke:#7383bf;stroke-width:0.52916276px;stroke-linecap:round;stroke-linejoin:miter;stroke-miterlimit:10;stroke-dasharray:none;stroke-opacity:1"
         d="m 24.020158,121.18435 c 0,-1.18533 0.952493,-2.11665 2.116651,-2.11665 1.164158,0 2.116651,0.93132 2.116651,2.11665"
         id="path4770" />
      <path
         inkscape:connector-curvature="0"
         style="fill:none;stroke:#424a60;stroke-width:0.52916276px;stroke-linecap:round;stroke-linejoin:miter;stroke-miterlimit:10;stroke-dasharray:none;stroke-opacity:1"
         d="m 30.116113,124.35932 v 6.07479"
         id="path4772" />
      <path
         inkscape:connector-curvature="0"
         style="fill:none;stroke:#424a60;stroke-width:0.52916276px;stroke-linecap:round;stroke-linejoin:miter;stroke-miterlimit:10;stroke-dasharray:none;stroke-opacity:1"
         d="m 30.116113,130.43411 -2.116651,-2.11665"
         id="path4774" />
      <path
         inkscape:connector-curvature="0"
         style="fill:none;stroke:#424a60;stroke-width:0.52916276px;stroke-linecap:round;stroke-linejoin:miter;stroke-miterlimit:10;stroke-dasharray:none;stroke-opacity:1"
         d="m 32.232764,128.31746 -2.116651,2.11665"
         id="path4776" />
    </g>
    <path
       style="fill:none;stroke:#000000;stroke-width:0.19402777px;stroke-linecap:butt;stroke-linejoin:miter;stroke-opacity:1"
       d="m 38.276386,108.93426 h 21.343059 v 14.55208 H 38.276386 Z"
       id="path4564-9-0-5"
       inkscape:connector-curvature="0" />
    <text
       xml:space="preserve"
       style="font-style:normal;font-variant:normal;font-weight:normal;font-stretch:normal;font-size:10.58333302px;line-height:1.25;font-family:Cabin;-inkscape-font-specification:Cabin;letter-spacing:0px;word-spacing:0px;fill:#000000;fill-opacity:1;stroke:none;stroke-width:0.26458332"
       x="37.231834"
       y="107.8529"
       id="text4827-4-2-1"><tspan
         sodipodi:role="line"
         id="tspan4825-5-9-7"
         x="37.231834"
         y="107.8529"
         style="font-style:normal;font-variant:normal;font-weight:normal;font-stretch:normal;font-size:2.82222223px;font-family:'GFS Complutum';-inkscape-font-specification:'GFS Complutum';stroke-width:0.26458332">Editor de Fontes </tspan></text>
    <g
       id="g4910"
       transform="translate(1.300329,-1.75021)">
      <path
         style="stroke-width:0.02391416"
         inkscape:connector-curvature="0"
         id="path2-7"
         d="m 51.034165,119.30544 c -0.09109,-0.0364 -0.170818,-0.0204 -0.239045,0.0477 l -0.437007,0.43701 c -0.04092,0.0408 -0.06153,0.091 -0.06153,0.15009 v 0.86038 c 0,0.30049 -0.106728,0.55753 -0.320641,0.77157 -0.214079,0.21391 -0.471133,0.32087 -0.771567,0.32087 h -5.680664 c -0.30041,0 -0.557607,-0.10696 -0.771567,-0.32087 -0.21396,-0.21401 -0.32088,-0.47106 -0.32088,-0.77157 v -5.68052 c 0,-0.30044 0.10692,-0.55761 0.32088,-0.77159 0.21396,-0.21391 0.471157,-0.32088 0.771567,-0.32088 h 5.680712 c 0.100105,0 0.202553,0.0136 0.307226,0.041 0.0821,0.0273 0.154772,0.009 0.218432,-0.0546 l 0.334463,-0.33457 c 0.05467,-0.0546 0.07505,-0.12059 0.06146,-0.19795 -0.01366,-0.0728 -0.05467,-0.12517 -0.122944,-0.157 -0.245837,-0.11364 -0.51205,-0.17072 -0.798804,-0.17072 H 43.52371 c -0.541608,0 -1.004801,0.19231 -1.38946,0.57695 -0.38454,0.38468 -0.576858,0.84776 -0.576858,1.38944 v 5.68064 c 0,0.54158 0.192318,1.00472 0.576882,1.38937 0.384635,0.38472 0.847852,0.57704 1.38946,0.57704 h 5.680546 c 0.541583,0 1.004729,-0.19232 1.389363,-0.57704 0.384732,-0.38465 0.57705,-0.84776 0.57705,-1.38937 v -1.29722 c -2.4e-5,-0.0958 -0.04563,-0.16169 -0.136527,-0.19821 z" />
      <path
         style="fill:#483737;stroke-width:0.02391416"
         inkscape:connector-curvature="0"
         id="path4"
         d="m 45.92701,119.05307 v 1.96625 h 1.966438 l 4.58817,-4.58814 -1.966413,-1.96634 z m 1.693195,1.31086 v 0 l -0.382388,-1.8e-4 v -0.65528 h -0.655391 v -0.38224 l 0.792037,-0.79204 1.037778,1.03788 z m 2.997328,-4.69067 -2.389766,2.3897 c -0.07734,0.0775 -0.152476,0.0797 -0.225295,0.007 -0.07277,-0.0728 -0.07054,-0.14793 0.0069,-0.22525 l 2.389765,-2.38971 c 0.07731,-0.0774 0.152285,-0.0797 0.225295,-0.007 0.07301,0.0728 0.07038,0.14791 -0.0069,0.22525 z" />
      <path
         style="fill:#800000;stroke-width:0.02391416"
         inkscape:connector-curvature="0"
         id="path6"
         d="m 53.546659,114.4375 -1.037779,-1.03778 c -0.127415,-0.12746 -0.282092,-0.19119 -0.464245,-0.19119 -0.182106,0 -0.336854,0.0637 -0.464198,0.19119 l -0.628201,0.62806 1.966414,1.96644 0.628033,-0.62818 c 0.127415,-0.12739 0.191098,-0.28219 0.191098,-0.46427 0,-0.18208 -0.0637,-0.33681 -0.191122,-0.46427 z" />
    </g>
    <path
       style="fill:#cccccc;stroke:#000000;stroke-width:0.33804539px;stroke-linecap:butt;stroke-linejoin:miter;stroke-opacity:1"
       d="m 63.248698,114.96668 h 7.395051 V 98.503383 h -7.143768 v -3.175 H 73.818749 V 118.34714 H 63.248698 v 1.69023 l -3.380455,-3.38046 3.380455,-3.38046 z"
       id="path4672-26-2"
       inkscape:connector-curvature="0"
       sodipodi:nodetypes="cccccccccccc" />
    <path
       style="fill:#cccccc;stroke:#000000;stroke-width:0.33804539px;stroke-linecap:butt;stroke-linejoin:miter;stroke-opacity:1"
       d="M 30.504517,88.832049 9.4800904,88.934773 h -1.278008 v 7.14375 H 3.4395825 v 3.43958 h 7.9375005 v -7.305601 h 19.127434 v 1.690228 l 3.380454,-3.380453 -3.380454,-3.380456 z"
       id="path4672-9"
       inkscape:connector-curvature="0"
       sodipodi:nodetypes="ccccccccccccc" />
    <path
       style="fill:#cccccc;stroke:#000000;stroke-width:0.26458332px;stroke-linecap:butt;stroke-linejoin:miter;stroke-opacity:1"
       d="m 19.843748,118.40626 h 17.991668 v -3.43958 H 23.018748 V 99.885429 h 7.408334 v 1.587501 l 3.439584,-3.439584 -3.439584,-3.175 v 1.5875 l -10.583333,0.264583 v 21.695831"
       id="path4557"
       inkscape:connector-curvature="0"
       sodipodi:nodetypes="cccccccccccc" />
  </g>
</svg>
